<svg xmlns="http://www.w3.org/2000/svg" xmlns:xlink="http://www.w3.org/1999/xlink" width="500" zoomAndPan="magnify" viewBox="0 0 375 374.999991" height="500" preserveAspectRatio="xMidYMid meet" version="1.0"><defs><g/><clipPath id="4e68064cff"><path d="M 6.304688 155 L 70 155 L 70 219 L 6.304688 219 Z M 6.304688 155 " clip-rule="nonzero"/></clipPath><clipPath id="50dfd270fa"><path d="M 65.027344 187.375 C 65.027344 202.289062 52.910156 214.378906 37.957031 214.378906 C 23.003906 214.378906 10.882812 202.289062 10.882812 187.375 C 10.882812 172.460938 23.003906 160.371094 37.957031 160.371094 C 52.910156 160.371094 65.027344 172.460938 65.027344 187.375 Z M 69.601562 187.375 C 69.601562 204.804688 55.433594 218.9375 37.957031 218.9375 C 20.480469 218.9375 6.3125 204.804688 6.3125 187.375 C 6.3125 169.945312 20.480469 155.8125 37.957031 155.8125 C 55.433594 155.8125 69.601562 169.945312 69.601562 187.375 Z M 55.414062 173.226562 C 55.414062 175.03125 53.949219 176.492188 52.140625 176.492188 C 50.332031 176.492188 48.867188 175.03125 48.867188 173.226562 C 48.867188 171.421875 50.332031 169.960938 52.140625 169.960938 C 53.949219 169.960938 55.414062 171.421875 55.414062 173.226562 Z M 28.4375 189.917969 C 29.847656 195.164062 35.25 198.273438 40.507812 196.867188 C 45.761719 195.464844 48.882812 190.074219 47.472656 184.832031 C 46.066406 179.585938 40.664062 176.476562 35.40625 177.882812 C 30.148438 179.285156 27.027344 184.675781 28.4375 189.917969 Z M 24.023438 191.097656 C 26.085938 198.773438 33.996094 203.328125 41.6875 201.273438 C 49.382812 199.214844 53.953125 191.328125 51.890625 183.652344 C 49.828125 175.976562 41.917969 171.421875 34.222656 173.476562 C 26.527344 175.535156 21.960938 183.421875 24.023438 191.097656 Z M 24.023438 191.097656 " clip-rule="evenodd"/></clipPath><linearGradient x1="15" gradientTransform="matrix(2.109564, 0, 0, 2.104166, 6.312902, 149.499906)" y1="3" x2="15" gradientUnits="userSpaceOnUse" y2="33" id="2afd2a911e"><stop stop-opacity="1" stop-color="rgb(52.89917%, 49.398804%, 100%)" offset="0"/><stop stop-opacity="1" stop-color="rgb(52.796936%, 49.28894%, 100%)" offset="0.0078125"/><stop stop-opacity="1" stop-color="rgb(52.590942%, 49.07074%, 100%)" offset="0.015625"/><stop stop-opacity="1" stop-color="rgb(52.386475%, 48.852539%, 100%)" offset="0.0234375"/><stop stop-opacity="1" stop-color="rgb(52.180481%, 48.632812%, 100%)" offset="0.03125"/><stop stop-opacity="1" stop-color="rgb(51.976013%, 48.414612%, 100%)" offset="0.0390625"/><stop stop-opacity="1" stop-color="rgb(51.771545%, 48.196411%, 100%)" offset="0.046875"/><stop stop-opacity="1" stop-color="rgb(51.565552%, 47.97821%, 100%)" offset="0.0546875"/><stop stop-opacity="1" stop-color="rgb(51.361084%, 47.758484%, 100%)" offset="0.0625"/><stop stop-opacity="1" stop-color="rgb(51.156616%, 47.540283%, 100%)" offset="0.0703125"/><stop stop-opacity="1" stop-color="rgb(50.950623%, 47.322083%, 100%)" offset="0.078125"/><stop stop-opacity="1" stop-color="rgb(50.746155%, 47.103882%, 100%)" offset="0.0859375"/><stop stop-opacity="1" stop-color="rgb(50.540161%, 46.884155%, 100%)" offset="0.09375"/><stop stop-opacity="1" stop-color="rgb(50.335693%, 46.665955%, 100%)" offset="0.101563"/><stop stop-opacity="1" stop-color="rgb(50.131226%, 46.447754%, 100%)" offset="0.109375"/><stop stop-opacity="1" stop-color="rgb(49.925232%, 46.228027%, 100%)" offset="0.117188"/><stop stop-opacity="1" stop-color="rgb(49.720764%, 46.009827%, 100%)" offset="0.125"/><stop stop-opacity="1" stop-color="rgb(49.514771%, 45.791626%, 100%)" offset="0.132812"/><stop stop-opacity="1" stop-color="rgb(49.310303%, 45.573425%, 100%)" offset="0.140625"/><stop stop-opacity="1" stop-color="rgb(49.105835%, 45.353699%, 100%)" offset="0.148438"/><stop stop-opacity="1" stop-color="rgb(48.899841%, 45.135498%, 100%)" offset="0.15625"/><stop stop-opacity="1" stop-color="rgb(48.695374%, 44.917297%, 100%)" offset="0.164063"/><stop stop-opacity="1" stop-color="rgb(48.490906%, 44.699097%, 100%)" offset="0.171875"/><stop stop-opacity="1" stop-color="rgb(48.284912%, 44.47937%, 100%)" offset="0.179688"/><stop stop-opacity="1" stop-color="rgb(48.080444%, 44.261169%, 100%)" offset="0.1875"/><stop stop-opacity="1" stop-color="rgb(47.874451%, 44.042969%, 100%)" offset="0.195313"/><stop stop-opacity="1" stop-color="rgb(47.669983%, 43.824768%, 100%)" offset="0.203125"/><stop stop-opacity="1" stop-color="rgb(47.465515%, 43.605042%, 100%)" offset="0.210938"/><stop stop-opacity="1" stop-color="rgb(47.259521%, 43.386841%, 100%)" offset="0.21875"/><stop stop-opacity="1" stop-color="rgb(47.055054%, 43.16864%, 100%)" offset="0.226563"/><stop stop-opacity="1" stop-color="rgb(46.84906%, 42.948914%, 100%)" offset="0.234375"/><stop stop-opacity="1" stop-color="rgb(46.644592%, 42.730713%, 100%)" offset="0.242188"/><stop stop-opacity="1" stop-color="rgb(46.440125%, 42.512512%, 100%)" offset="0.25"/><stop stop-opacity="1" stop-color="rgb(46.234131%, 42.294312%, 100%)" offset="0.257813"/><stop stop-opacity="1" stop-color="rgb(46.029663%, 42.074585%, 100%)" offset="0.265625"/><stop stop-opacity="1" stop-color="rgb(45.825195%, 41.856384%, 100%)" offset="0.273438"/><stop stop-opacity="1" stop-color="rgb(45.619202%, 41.638184%, 100%)" offset="0.28125"/><stop stop-opacity="1" stop-color="rgb(45.414734%, 41.419983%, 100%)" offset="0.289063"/><stop stop-opacity="1" stop-color="rgb(45.20874%, 41.200256%, 100%)" offset="0.296875"/><stop stop-opacity="1" stop-color="rgb(45.004272%, 40.982056%, 100%)" offset="0.304688"/><stop stop-opacity="1" stop-color="rgb(44.799805%, 40.763855%, 100%)" offset="0.3125"/><stop stop-opacity="1" stop-color="rgb(44.593811%, 40.544128%, 100%)" offset="0.320313"/><stop stop-opacity="1" stop-color="rgb(44.389343%, 40.325928%, 100%)" offset="0.328125"/><stop stop-opacity="1" stop-color="rgb(44.18335%, 40.107727%, 100%)" offset="0.335938"/><stop stop-opacity="1" stop-color="rgb(43.978882%, 39.889526%, 100%)" offset="0.34375"/><stop stop-opacity="1" stop-color="rgb(43.774414%, 39.6698%, 100%)" offset="0.351563"/><stop stop-opacity="1" stop-color="rgb(43.56842%, 39.451599%, 100%)" offset="0.359375"/><stop stop-opacity="1" stop-color="rgb(43.363953%, 39.233398%, 100%)" offset="0.367188"/><stop stop-opacity="1" stop-color="rgb(43.159485%, 39.015198%, 100%)" offset="0.375"/><stop stop-opacity="1" stop-color="rgb(42.953491%, 38.795471%, 100%)" offset="0.382812"/><stop stop-opacity="1" stop-color="rgb(42.749023%, 38.577271%, 100%)" offset="0.390625"/><stop stop-opacity="1" stop-color="rgb(42.54303%, 38.35907%, 100%)" offset="0.398438"/><stop stop-opacity="1" stop-color="rgb(42.338562%, 38.139343%, 100%)" offset="0.40625"/><stop stop-opacity="1" stop-color="rgb(42.134094%, 37.921143%, 100%)" offset="0.414062"/><stop stop-opacity="1" stop-color="rgb(41.928101%, 37.702942%, 100%)" offset="0.421875"/><stop stop-opacity="1" stop-color="rgb(41.723633%, 37.484741%, 100%)" offset="0.429688"/><stop stop-opacity="1" stop-color="rgb(41.517639%, 37.265015%, 100%)" offset="0.4375"/><stop stop-opacity="1" stop-color="rgb(41.313171%, 37.046814%, 100%)" offset="0.445313"/><stop stop-opacity="1" stop-color="rgb(41.108704%, 36.828613%, 100%)" offset="0.453125"/><stop stop-opacity="1" stop-color="rgb(40.90271%, 36.610413%, 100%)" offset="0.460938"/><stop stop-opacity="1" stop-color="rgb(40.644836%, 36.329651%, 100%)" offset="0.46875"/><stop stop-opacity="1" stop-color="rgb(40.332031%, 35.98938%, 100%)" offset="0.476563"/><stop stop-opacity="1" stop-color="rgb(40.0177%, 35.646057%, 100%)" offset="0.484375"/><stop stop-opacity="1" stop-color="rgb(39.704895%, 35.30426%, 100%)" offset="0.492188"/><stop stop-opacity="1" stop-color="rgb(39.39209%, 34.962463%, 100%)" offset="0.5"/><stop stop-opacity="1" stop-color="rgb(39.079285%, 34.620667%, 100%)" offset="0.507812"/><stop stop-opacity="1" stop-color="rgb(38.766479%, 34.27887%, 100%)" offset="0.515625"/><stop stop-opacity="1" stop-color="rgb(38.453674%, 33.937073%, 100%)" offset="0.523437"/><stop stop-opacity="1" stop-color="rgb(38.139343%, 33.59375%, 100%)" offset="0.53125"/><stop stop-opacity="1" stop-color="rgb(37.826538%, 33.251953%, 100%)" offset="0.539062"/><stop stop-opacity="1" stop-color="rgb(37.513733%, 32.910156%, 100%)" offset="0.546875"/><stop stop-opacity="1" stop-color="rgb(37.200928%, 32.568359%, 100%)" offset="0.554687"/><stop stop-opacity="1" stop-color="rgb(36.888123%, 32.226562%, 100%)" offset="0.5625"/><stop stop-opacity="1" stop-color="rgb(36.573792%, 31.88324%, 100%)" offset="0.570312"/><stop stop-opacity="1" stop-color="rgb(36.260986%, 31.541443%, 100%)" offset="0.578125"/><stop stop-opacity="1" stop-color="rgb(35.948181%, 31.199646%, 100%)" offset="0.585937"/><stop stop-opacity="1" stop-color="rgb(35.635376%, 30.857849%, 100%)" offset="0.59375"/><stop stop-opacity="1" stop-color="rgb(35.322571%, 30.516052%, 100%)" offset="0.601562"/><stop stop-opacity="1" stop-color="rgb(35.009766%, 30.174255%, 100%)" offset="0.609375"/><stop stop-opacity="1" stop-color="rgb(34.695435%, 29.830933%, 100%)" offset="0.617187"/><stop stop-opacity="1" stop-color="rgb(34.382629%, 29.489136%, 100%)" offset="0.625"/><stop stop-opacity="1" stop-color="rgb(34.069824%, 29.147339%, 100%)" offset="0.632812"/><stop stop-opacity="1" stop-color="rgb(33.757019%, 28.805542%, 100%)" offset="0.640625"/><stop stop-opacity="1" stop-color="rgb(33.444214%, 28.463745%, 100%)" offset="0.648438"/><stop stop-opacity="1" stop-color="rgb(33.131409%, 28.120422%, 100%)" offset="0.65625"/><stop stop-opacity="1" stop-color="rgb(32.817078%, 27.778625%, 100%)" offset="0.664062"/><stop stop-opacity="1" stop-color="rgb(32.504272%, 27.436829%, 100%)" offset="0.671875"/><stop stop-opacity="1" stop-color="rgb(32.191467%, 27.095032%, 100%)" offset="0.679688"/><stop stop-opacity="1" stop-color="rgb(31.878662%, 26.753235%, 100%)" offset="0.6875"/><stop stop-opacity="1" stop-color="rgb(31.565857%, 26.411438%, 100%)" offset="0.695312"/><stop stop-opacity="1" stop-color="rgb(31.251526%, 26.068115%, 100%)" offset="0.703125"/><stop stop-opacity="1" stop-color="rgb(30.938721%, 25.726318%, 100%)" offset="0.710938"/><stop stop-opacity="1" stop-color="rgb(30.625916%, 25.384521%, 100%)" offset="0.71875"/><stop stop-opacity="1" stop-color="rgb(30.31311%, 25.042725%, 100%)" offset="0.726562"/><stop stop-opacity="1" stop-color="rgb(30.000305%, 24.700928%, 100%)" offset="0.734375"/><stop stop-opacity="1" stop-color="rgb(29.6875%, 24.359131%, 100%)" offset="0.742188"/><stop stop-opacity="1" stop-color="rgb(29.373169%, 24.015808%, 100%)" offset="0.75"/><stop stop-opacity="1" stop-color="rgb(29.060364%, 23.674011%, 100%)" offset="0.757812"/><stop stop-opacity="1" stop-color="rgb(28.747559%, 23.332214%, 100%)" offset="0.765625"/><stop stop-opacity="1" stop-color="rgb(28.434753%, 22.990417%, 100%)" offset="0.773438"/><stop stop-opacity="1" stop-color="rgb(28.121948%, 22.648621%, 100%)" offset="0.78125"/><stop stop-opacity="1" stop-color="rgb(27.807617%, 22.305298%, 100%)" offset="0.789062"/><stop stop-opacity="1" stop-color="rgb(27.494812%, 21.963501%, 100%)" offset="0.796875"/><stop stop-opacity="1" stop-color="rgb(27.182007%, 21.621704%, 100%)" offset="0.804688"/><stop stop-opacity="1" stop-color="rgb(26.869202%, 21.279907%, 100%)" offset="0.8125"/><stop stop-opacity="1" stop-color="rgb(26.556396%, 20.93811%, 100%)" offset="0.820312"/><stop stop-opacity="1" stop-color="rgb(26.243591%, 20.596313%, 100%)" offset="0.828125"/><stop stop-opacity="1" stop-color="rgb(25.92926%, 20.252991%, 100%)" offset="0.835938"/><stop stop-opacity="1" stop-color="rgb(25.616455%, 19.911194%, 100%)" offset="0.84375"/><stop stop-opacity="1" stop-color="rgb(25.30365%, 19.569397%, 100%)" offset="0.851562"/><stop stop-opacity="1" stop-color="rgb(24.990845%, 19.2276%, 100%)" offset="0.859375"/><stop stop-opacity="1" stop-color="rgb(24.67804%, 18.885803%, 100%)" offset="0.867188"/><stop stop-opacity="1" stop-color="rgb(24.363708%, 18.54248%, 100%)" offset="0.875"/><stop stop-opacity="1" stop-color="rgb(24.050903%, 18.200684%, 100%)" offset="0.882813"/><stop stop-opacity="1" stop-color="rgb(23.738098%, 17.858887%, 100%)" offset="0.890625"/><stop stop-opacity="1" stop-color="rgb(23.425293%, 17.51709%, 100%)" offset="0.898438"/><stop stop-opacity="1" stop-color="rgb(23.112488%, 17.175293%, 100%)" offset="0.90625"/><stop stop-opacity="1" stop-color="rgb(22.799683%, 16.833496%, 100%)" offset="0.914063"/><stop stop-opacity="1" stop-color="rgb(22.485352%, 16.490173%, 100%)" offset="0.921875"/><stop stop-opacity="1" stop-color="rgb(22.172546%, 16.148376%, 100%)" offset="0.929688"/><stop stop-opacity="1" stop-color="rgb(21.859741%, 15.80658%, 100%)" offset="0.9375"/><stop stop-opacity="1" stop-color="rgb(21.546936%, 15.464783%, 100%)" offset="0.945313"/><stop stop-opacity="1" stop-color="rgb(21.234131%, 15.122986%, 100%)" offset="0.953125"/><stop stop-opacity="1" stop-color="rgb(20.9198%, 14.781189%, 100%)" offset="0.960938"/><stop stop-opacity="1" stop-color="rgb(20.606995%, 14.437866%, 100%)" offset="0.96875"/><stop stop-opacity="1" stop-color="rgb(20.294189%, 14.096069%, 100%)" offset="0.976563"/><stop stop-opacity="1" stop-color="rgb(19.981384%, 13.754272%, 100%)" offset="0.984375"/><stop stop-opacity="1" stop-color="rgb(19.668579%, 13.412476%, 100%)" offset="0.992188"/><stop stop-opacity="1" stop-color="rgb(19.355774%, 13.070679%, 100%)" offset="1"/></linearGradient></defs><rect x="-37.5" width="450" fill="#ffffff" y="-37.499999" height="449.999989" fill-opacity="1"/><rect x="-37.5" width="450" fill="#ffffff" y="-37.499999" height="449.999989" fill-opacity="1"/><g clip-path="url(#4e68064cff)"><g clip-path="url(#50dfd270fa)"><path fill="url(#2afd2a911e)" d="M 6.3125 155.8125 L 6.3125 218.9375 L 69.601562 218.9375 L 69.601562 155.8125 Z M 6.3125 155.8125 " fill-rule="nonzero"/></g></g><g fill="#ffffff" fill-opacity="1"><g transform="translate(78.251874, 201.472509)"><g><path d="M 29.4375 -41.15625 L 29.4375 0 L 21.9375 0 L 21.9375 -1.953125 C 19.507812 -0.0976562 17.015625 0.828125 14.453125 0.828125 C 12.015625 0.828125 9.851562 0.285156 7.96875 -0.796875 C 6.09375 -1.890625 4.617188 -3.519531 3.546875 -5.6875 C 2.484375 -7.863281 1.953125 -10.523438 1.953125 -13.671875 C 1.953125 -16.816406 2.484375 -19.472656 3.546875 -21.640625 C 4.617188 -23.816406 6.09375 -25.445312 7.96875 -26.53125 C 9.851562 -27.625 12.015625 -28.171875 14.453125 -28.171875 C 17.046875 -28.171875 19.539062 -27.226562 21.9375 -25.34375 L 21.9375 -41.15625 Z M 15.953125 -5.84375 C 17.898438 -5.84375 19.894531 -6.585938 21.9375 -8.078125 L 21.9375 -19.265625 C 19.925781 -20.722656 17.929688 -21.453125 15.953125 -21.453125 C 13.910156 -21.453125 12.367188 -20.785156 11.328125 -19.453125 C 10.296875 -18.128906 9.78125 -16.203125 9.78125 -13.671875 C 9.78125 -11.109375 10.296875 -9.160156 11.328125 -7.828125 C 12.367188 -6.503906 13.910156 -5.84375 15.953125 -5.84375 Z M 15.953125 -5.84375 "/></g></g></g><g fill="#ffffff" fill-opacity="1"><g transform="translate(111.338082, 201.472509)"><g><path d="M 9.921875 -11.625 C 10.503906 -7.507812 13.066406 -5.453125 17.609375 -5.453125 C 18.847656 -5.453125 20.054688 -5.613281 21.234375 -5.9375 C 22.421875 -6.257812 23.757812 -6.78125 25.25 -7.5 L 27.25 -1.65625 C 25.59375 -0.75 23.945312 -0.109375 22.3125 0.265625 C 20.675781 0.640625 18.785156 0.828125 16.640625 0.828125 C 13.523438 0.828125 10.863281 0.21875 8.65625 -1 C 6.457031 -2.21875 4.789062 -3.921875 3.65625 -6.109375 C 2.519531 -8.296875 1.953125 -10.832031 1.953125 -13.71875 C 1.953125 -16.769531 2.535156 -19.378906 3.703125 -21.546875 C 4.867188 -23.722656 6.457031 -25.367188 8.46875 -26.484375 C 10.476562 -27.609375 12.71875 -28.171875 15.1875 -28.171875 C 19.101562 -28.171875 22.171875 -27.019531 24.390625 -24.71875 C 26.617188 -22.414062 27.734375 -19.039062 27.734375 -14.59375 L 27.734375 -11.625 Z M 15.1875 -21.890625 C 13.820312 -21.890625 12.707031 -21.53125 11.84375 -20.8125 C 10.988281 -20.101562 10.398438 -18.941406 10.078125 -17.328125 L 19.90625 -17.328125 C 19.738281 -18.910156 19.265625 -20.066406 18.484375 -20.796875 C 17.710938 -21.523438 16.613281 -21.890625 15.1875 -21.890625 Z M 15.1875 -21.890625 "/></g></g></g><g fill="#ffffff" fill-opacity="1"><g transform="translate(140.726411, 201.472509)"><g><path d="M 44.234375 -27.390625 L 36.9375 0.4375 L 28.125 0.4375 L 22.8125 -16.828125 L 17.515625 0.4375 L 8.703125 0.4375 L 1.359375 -27.390625 L 9.046875 -27.390625 L 13.28125 -8.90625 L 18.34375 -27.390625 L 27.25 -27.390625 L 32.359375 -8.90625 L 36.546875 -27.390625 Z M 44.234375 -27.390625 "/></g></g></g><g fill="#ffffff" fill-opacity="1"><g transform="translate(186.317252, 201.472509)"><g><path d="M 9.921875 -11.625 C 10.503906 -7.507812 13.066406 -5.453125 17.609375 -5.453125 C 18.847656 -5.453125 20.054688 -5.613281 21.234375 -5.9375 C 22.421875 -6.257812 23.757812 -6.78125 25.25 -7.5 L 27.25 -1.65625 C 25.59375 -0.75 23.945312 -0.109375 22.3125 0.265625 C 20.675781 0.640625 18.785156 0.828125 16.640625 0.828125 C 13.523438 0.828125 10.863281 0.21875 8.65625 -1 C 6.457031 -2.21875 4.789062 -3.921875 3.65625 -6.109375 C 2.519531 -8.296875 1.953125 -10.832031 1.953125 -13.71875 C 1.953125 -16.769531 2.535156 -19.378906 3.703125 -21.546875 C 4.867188 -23.722656 6.457031 -25.367188 8.46875 -26.484375 C 10.476562 -27.609375 12.71875 -28.171875 15.1875 -28.171875 C 19.101562 -28.171875 22.171875 -27.019531 24.390625 -24.71875 C 26.617188 -22.414062 27.734375 -19.039062 27.734375 -14.59375 L 27.734375 -11.625 Z M 15.1875 -21.890625 C 13.820312 -21.890625 12.707031 -21.53125 11.84375 -20.8125 C 10.988281 -20.101562 10.398438 -18.941406 10.078125 -17.328125 L 19.90625 -17.328125 C 19.738281 -18.910156 19.265625 -20.066406 18.484375 -20.796875 C 17.710938 -21.523438 16.613281 -21.890625 15.1875 -21.890625 Z M 15.1875 -21.890625 "/></g></g></g><g fill="#ffffff" fill-opacity="1"><g transform="translate(215.705581, 201.472509)"><g><path d="M 13.578125 -9.96875 L 11.140625 -7.4375 L 11.140625 0 L 3.65625 0 L 3.65625 -41.15625 L 11.140625 -41.15625 L 11.140625 -16.828125 L 20.34375 -26.5625 L 29.390625 -26.5625 L 18.484375 -15.125 L 30.40625 0 L 21.453125 0 Z M 13.578125 -9.96875 "/></g></g></g><g fill="#ffffff" fill-opacity="1"><g transform="translate(246.796876, 201.472509)"><g><path d="M 13.765625 -27.390625 C 17.171875 -27.390625 19.75 -26.910156 21.5 -25.953125 C 23.257812 -24.992188 24.429688 -23.71875 25.015625 -22.125 C 25.597656 -20.539062 25.890625 -18.519531 25.890625 -16.0625 L 25.890625 0 L 18.390625 0 L 18.390625 -2.328125 C 17.222656 -1.265625 16.078125 -0.503906 14.953125 -0.046875 C 13.835938 0.398438 12.597656 0.625 11.234375 0.625 C 8.253906 0.625 5.890625 -0.191406 4.140625 -1.828125 C 2.390625 -3.460938 1.515625 -5.722656 1.515625 -8.609375 C 1.515625 -11.566406 2.410156 -13.835938 4.203125 -15.421875 C 6.003906 -17.015625 8.492188 -17.8125 11.671875 -17.8125 C 14.234375 -17.8125 16.472656 -17.320312 18.390625 -16.34375 C 18.359375 -17.414062 18.210938 -18.269531 17.953125 -18.90625 C 17.691406 -19.539062 17.179688 -20.023438 16.421875 -20.359375 C 15.660156 -20.703125 14.535156 -20.875 13.046875 -20.875 L 7.984375 -20.875 L 7.984375 -27.390625 Z M 12.75 -5.25 C 14.5625 -5.25 16.441406 -6.0625 18.390625 -7.6875 L 18.390625 -11.140625 C 16.703125 -11.953125 15.03125 -12.359375 13.375 -12.359375 C 12.082031 -12.359375 11.046875 -12.066406 10.265625 -11.484375 C 9.484375 -10.898438 9.09375 -9.972656 9.09375 -8.703125 C 9.09375 -6.398438 10.3125 -5.25 12.75 -5.25 Z M 12.75 -5.25 "/></g></g></g><g fill="#5d5fef" fill-opacity="1"><g transform="translate(275.854704, 201.472509)"><g><path d="M 18.96875 -27.984375 C 22.539062 -27.984375 25.207031 -27.066406 26.96875 -25.234375 C 28.738281 -23.398438 29.625 -20.472656 29.625 -16.453125 L 29.625 0 L 22.140625 0 L 22.140625 -16.453125 C 22.140625 -18.066406 21.78125 -19.269531 21.0625 -20.0625 C 20.351562 -20.863281 19.125 -21.265625 17.375 -21.265625 C 15.289062 -21.265625 13.210938 -20.40625 11.140625 -18.6875 L 11.140625 0 L 3.65625 0 L 3.65625 -27.390625 L 11.140625 -27.390625 L 11.140625 -25.015625 C 13.546875 -26.992188 16.15625 -27.984375 18.96875 -27.984375 Z M 18.96875 -27.984375 "/></g></g></g><g fill="#5d5fef" fill-opacity="1"><g transform="translate(308.89225, 201.472509)"><g><path d="M 13.765625 -27.390625 C 17.171875 -27.390625 19.75 -26.910156 21.5 -25.953125 C 23.257812 -24.992188 24.429688 -23.71875 25.015625 -22.125 C 25.597656 -20.539062 25.890625 -18.519531 25.890625 -16.0625 L 25.890625 0 L 18.390625 0 L 18.390625 -2.328125 C 17.222656 -1.265625 16.078125 -0.503906 14.953125 -0.046875 C 13.835938 0.398438 12.597656 0.625 11.234375 0.625 C 8.253906 0.625 5.890625 -0.191406 4.140625 -1.828125 C 2.390625 -3.460938 1.515625 -5.722656 1.515625 -8.609375 C 1.515625 -11.566406 2.410156 -13.835938 4.203125 -15.421875 C 6.003906 -17.015625 8.492188 -17.8125 11.671875 -17.8125 C 14.234375 -17.8125 16.472656 -17.320312 18.390625 -16.34375 C 18.359375 -17.414062 18.210938 -18.269531 17.953125 -18.90625 C 17.691406 -19.539062 17.179688 -20.023438 16.421875 -20.359375 C 15.660156 -20.703125 14.535156 -20.875 13.046875 -20.875 L 7.984375 -20.875 L 7.984375 -27.390625 Z M 12.75 -5.25 C 14.5625 -5.25 16.441406 -6.0625 18.390625 -7.6875 L 18.390625 -11.140625 C 16.703125 -11.953125 15.03125 -12.359375 13.375 -12.359375 C 12.082031 -12.359375 11.046875 -12.066406 10.265625 -11.484375 C 9.484375 -10.898438 9.09375 -9.972656 9.09375 -8.703125 C 9.09375 -6.398438 10.3125 -5.25 12.75 -5.25 Z M 12.75 -5.25 "/></g></g></g><g fill="#5d5fef" fill-opacity="1"><g transform="translate(337.939993, 201.472509)"><g><path d="M 13.765625 -27.390625 C 17.171875 -27.390625 19.75 -26.910156 21.5 -25.953125 C 23.257812 -24.992188 24.429688 -23.71875 25.015625 -22.125 C 25.597656 -20.539062 25.890625 -18.519531 25.890625 -16.0625 L 25.890625 0 L 18.390625 0 L 18.390625 -2.328125 C 17.222656 -1.265625 16.078125 -0.503906 14.953125 -0.046875 C 13.835938 0.398438 12.597656 0.625 11.234375 0.625 C 8.253906 0.625 5.890625 -0.191406 4.140625 -1.828125 C 2.390625 -3.460938 1.515625 -5.722656 1.515625 -8.609375 C 1.515625 -11.566406 2.410156 -13.835938 4.203125 -15.421875 C 6.003906 -17.015625 8.492188 -17.8125 11.671875 -17.8125 C 14.234375 -17.8125 16.472656 -17.320312 18.390625 -16.34375 C 18.359375 -17.414062 18.210938 -18.269531 17.953125 -18.90625 C 17.691406 -19.539062 17.179688 -20.023438 16.421875 -20.359375 C 15.660156 -20.703125 14.535156 -20.875 13.046875 -20.875 L 7.984375 -20.875 L 7.984375 -27.390625 Z M 12.75 -5.25 C 14.5625 -5.25 16.441406 -6.0625 18.390625 -7.6875 L 18.390625 -11.140625 C 16.703125 -11.953125 15.03125 -12.359375 13.375 -12.359375 C 12.082031 -12.359375 11.046875 -12.066406 10.265625 -11.484375 C 9.484375 -10.898438 9.09375 -9.972656 9.09375 -8.703125 C 9.09375 -6.398438 10.3125 -5.25 12.75 -5.25 Z M 12.75 -5.25 "/></g></g></g></svg>